<svg width="108" height="36" viewBox="0 0 108 36" fill="none" xmlns="http://www.w3.org/2000/svg">
<path d="M36.8235 9.81301C31.8184 9.82179 27.9745 13.687 27.9883 18.6971C28.0021 23.6847 31.8761 27.516 36.9025 27.5035C41.9014 27.4922 45.7653 23.6095 45.7453 18.6181C45.7252 13.6268 41.8525 9.80298 36.8235 9.81301ZM38.7975 23.5894C36.9239 24.4234 35.1518 24.0911 33.613 22.7492C31.6202 21.0085 31.2916 17.665 32.8493 15.4252C33.2774 14.7975 33.8469 14.2791 34.5118 13.9115C35.1767 13.5439 35.9185 13.3373 36.6777 13.3084C37.437 13.2795 38.1924 13.4291 38.8833 13.7451C39.5742 14.0611 40.1814 14.5347 40.6561 15.1279C41.4374 16.0861 41.8437 17.3001 41.8425 19.0884C41.7685 20.8968 40.8906 22.6564 38.7975 23.5894Z" fill="#DB4437"/>
<path d="M56.1521 9.80616C51.1144 9.81368 47.248 13.6789 47.2618 18.7103C47.2718 23.6754 51.1658 27.5117 56.1873 27.5054C61.1673 27.4992 65.035 23.6528 65.04 18.7066C65.0438 13.6638 61.1836 9.79989 56.1521 9.80616ZM55.51 23.9626C53.6151 23.7506 51.9985 22.3071 51.4078 20.3068C50.6554 17.7535 51.7214 14.9932 53.8872 13.8732C57.03 12.2429 60.7209 14.321 61.0921 17.924C61.1172 18.1748 61.1222 18.4257 61.1259 18.4959C61.1247 21.9547 58.6202 24.3112 55.51 23.9626Z" fill="#F4B400"/>
<path d="M96.2031 21.3253C100.11 19.7075 104.019 18.0885 107.999 16.4418C107.693 15.7395 107.456 15.1137 107.158 14.518C104.91 10.0559 100.077 8.47946 95.8996 10.9137C93.1594 12.5114 91.9367 15.0623 91.7611 18.1549C91.3961 24.8443 97.7595 29.378 103.91 26.8158C105.525 26.1424 106.794 25.0337 107.81 23.5815L104.8 21.5874C102.324 25.262 97.4021 24.428 96.2031 21.3253ZM99.05 13.3956C100.818 12.8939 102.646 13.5937 103.387 15.1137L95.5447 18.3744C95.3503 16.1396 96.8804 14.0101 99.05 13.3956Z" fill="#DB4437"/>
<path d="M26.5667 12.5128H25.8519C22.1949 12.5128 18.5379 12.5128 14.8809 12.5128C14.6527 12.5128 14.4257 12.5417 14.1974 12.5567H14.072C14.0369 12.5768 13.9729 12.5956 13.9729 12.6169C13.9566 13.7682 13.9416 14.9207 13.9504 16.0733C13.9504 16.1272 14.1736 16.1786 14.2927 16.2313C14.4365 16.2533 14.5814 16.268 14.7267 16.2752C17.4355 16.2752 20.1453 16.2752 22.8558 16.2752C22.6652 18.658 21.6393 20.5667 19.703 22.0002C15.681 24.9799 7.88173 24.4695 5.00229 17.903C3.33307 14.0968 3.81966 10.4197 6.52729 7.22425C9.19603 4.07267 13.3622 2.97281 17.1546 4.35609C18.4238 4.81886 19.5688 5.61772 20.6937 6.22221L23.3349 3.74785C23.3349 3.74785 23.1443 3.60613 23.0703 3.53716C18.2495 -0.929986 10.8464 -1.19586 5.4337 2.9101C-1.06886 7.84754 -1.86648 17.1781 3.75194 23.0938C7.06028 26.5764 11.1788 27.9459 15.9168 27.4192C21.1715 26.8348 25.265 23.2154 26.4187 18.2165C26.8603 16.3458 26.9107 14.404 26.5667 12.5128Z" fill="#4285F4"/>
<path d="M83.526 10.391H79.8778C79.8577 10.8375 79.8402 11.2563 79.8176 11.753L79.0476 11.1686L78.1697 10.5816C76.5193 9.66237 74.7748 9.60342 73.0065 10.1013C69.6342 11.0494 67.0307 14.0768 66.682 17.5382C66.2945 21.372 67.7556 24.3718 71.0488 26.3884C73.7389 28.0351 77.4185 27.9837 79.6771 25.636C79.6959 25.6172 79.7511 25.636 79.8025 25.636C79.8025 26.3634 79.8653 27.0932 79.7913 27.8081C79.5718 29.9112 78.4481 31.2732 76.597 31.7761C74.6218 32.3129 72.6491 31.6708 71.4464 30.0755C71.1592 29.6993 70.9285 29.2741 70.6438 28.8214L67.3279 30.2009C69.1965 34.6831 74.0876 36.5417 78.5409 34.8411L80.6177 33.641C80.6242 33.6426 80.6309 33.6429 80.6374 33.6418C80.644 33.6407 80.6503 33.6382 80.6558 33.6346C80.6614 33.6309 80.6661 33.6261 80.6697 33.6205C80.6733 33.6149 80.6756 33.6087 80.6767 33.6021L80.792 33.4955L80.9175 33.3701L81.3413 32.9274L81.3351 32.9123C81.6536 32.5072 82.0236 32.1323 82.2794 31.6908C83.2037 30.0968 83.5486 28.3461 83.5498 26.5189C83.5498 21.2968 83.5498 16.0742 83.5498 10.8513C83.5536 10.7133 83.5373 10.5703 83.526 10.391ZM79.6458 21.0974C78.7955 23.1491 76.9582 24.2025 74.8024 23.973C72.8184 23.7623 71.0902 22.1232 70.6425 20.005C70.5485 19.5598 70.5171 19.0995 70.4833 18.8036C70.5572 16.708 71.2583 15.1027 72.9288 14.0317C73.4228 13.7058 73.9768 13.4815 74.5584 13.3717C75.14 13.2619 75.7376 13.2689 76.3165 13.3923C76.8953 13.5157 77.4439 13.7529 77.9302 14.0903C78.4165 14.4276 78.8308 14.8583 79.1491 15.3573C80.3217 17.1682 80.466 19.1171 79.6458 21.0974Z" fill="#4285F4"/>
<path d="M86.1719 0.961426V26.9441H89.9969V0.961426H86.1719Z" fill="#0F9D58"/>
</svg>
